<svg xmlns="http://www.w3.org/2000/svg" viewBox="0 0 64 64" aria-labelledby="title"
aria-describedby="desc" role="img" xmlns:xlink="http://www.w3.org/1999/xlink">
  <title>Bank Cards</title>
  <desc>A line styled icon from Orion Icon Library.</desc>
  <path data-name="layer2"
  d="M10.3 29l-2.2-6.1a2.4 2.4 0 0 1 1.4-3.1L50.1 5.1a2.4 2.4 0 0 1 3.1 1.4l8.7 24a2.4 2.4 0 0 1-1.4 3.1L50 37.4m-39.9-9.2L55 11.8m-8.3 9.8l4.5-1.6"
  fill="none" stroke="#000000" stroke-miterlimit="10" stroke-width="2" stroke-linejoin="round"
  stroke-linecap="round"></path>
  <rect data-name="layer1" x="2" y="29" width="48" height="30" rx="2.4"
  ry="2.4" fill="none" stroke="#000000" stroke-miterlimit="10" stroke-width="2"
  stroke-linejoin="round" stroke-linecap="round"></rect>
  <path data-name="layer1" fill="none" stroke="#000000" stroke-miterlimit="10"
  stroke-width="2" d="M10 43h14m12-6h6M10 51h2m8 0h2m8 0h2m8 0h2" stroke-linejoin="round"
  stroke-linecap="round"></path>
</svg>