<svg xmlns="http://www.w3.org/2000/svg" viewBox="0 0 64 64" aria-labelledby="title"
aria-describedby="desc" role="img" xmlns:xlink="http://www.w3.org/1999/xlink">
  <title>POS Terminal</title>
  <desc>A line styled icon from Orion Icon Library.</desc>
  <path data-name="layer2"
  d="M40 18h19a3 3 0 0 1 3 3v30a3 3 0 0 1-3 3H40m14-36v36" fill="none" stroke="#000000"
  stroke-miterlimit="10" stroke-width="2" stroke-linejoin="round" stroke-linecap="round"></path>
  <rect data-name="layer1" x="2" y="2" width="38" height="60" rx="3"
  ry="3" fill="none" stroke="#000000" stroke-miterlimit="10" stroke-width="2"
  stroke-linejoin="round" stroke-linecap="round"></rect>
  <path data-name="layer1" fill="none" stroke="#000000" stroke-miterlimit="10"
  stroke-width="2" d="M10 10h22v16H10zm0 26h2m8 0h2m8 0h2m-22 8h2m8 0h2m8 0h2m-22 8h2m8 0h2m8 0h2"
  stroke-linejoin="round" stroke-linecap="round"></path>
</svg>